dataset
version=1
nRows=22
nColumns=39
inDegrees=no
endheader
time	sternoclavicular_r2	sternoclavicular_r3	unrotscap_r3	unrotscap_r2	acromioclavicular_r2	acromioclavicular_r3	acromioclavicular_r1	unrothum_r1	unrothum_r3	unrothum_r2	elv_angle	shoulder_elv	shoulder1_r2	shoulder_rot	elbow_flexion	pro_sup	deviation	flexion	cmc_abduction	cmc_flexion	mp_flexion	ip_flexion	mcp2_flexion	mcp2_abduction	pm2_flexion	md2_flexion	mcp3_flexion	mcp3_abduction	pm3_flexion	md3_flexion	mcp4_flexion	mcp4_abduction	pm4_flexion	md4_flexion	mcp5_flexion	mcp5_abduction	pm5_flexion	md5_flexion
0.000000	-0.024998	-0.324453	0.156015	0.146458	0.126853	0.098599	-0.130629	-0.078997	0.068677	0.177522	0.162034	0.027437	0.146525	0.146525	1.160087	0.932735	0.000000	0.000000	0.000000	0.000000	0.000000	0.000000	0.000000	0.000000	0.000000	0.000000	0.000000	0.000000	0.000000	0.000000	0.000000	0.000000	0.000000	0.000000	0.000000	0.000000	0.000000	0.000000
0.005000	-0.025061	-0.324602	0.156263	0.146802	0.127135	0.098930	-0.130739	-0.079035	0.069110	0.177737	0.162354	0.027437	0.146525	0.146525	1.159812	0.937915	0.000000	0.000000	0.000000	0.000000	0.000000	0.000000	0.000000	0.000000	0.000000	0.000000	0.000000	0.000000	0.000000	0.000000	0.000000	0.000000	0.000000	0.000000	0.000000	0.000000	0.000000	0.000000
0.010000	-0.025123	-0.324750	0.156503	0.147149	0.127422	0.099253	-0.130844	-0.079103	0.069559	0.177961	0.162682	0.027437	0.146525	0.146525	1.159617	0.943022	0.000000	0.000000	0.000000	0.000000	0.000000	0.000000	0.000000	0.000000	0.000000	0.000000	0.000000	0.000000	0.000000	0.000000	0.000000	0.000000	0.000000	0.000000	0.000000	0.000000	0.000000	0.000000
0.015000	-0.025185	-0.324897	0.156740	0.147498	0.127713	0.099569	-0.130949	-0.079190	0.070019	0.178194	0.163017	0.027437	0.146525	0.146525	1.159506	0.948059	0.000000	0.000000	0.000000	0.000000	0.000000	0.000000	0.000000	0.000000	0.000000	0.000000	0.000000	0.000000	0.000000	0.000000	0.000000	0.000000	0.000000	0.000000	0.000000	0.000000	0.000000	0.000000
0.020000	-0.025248	-0.325045	0.156977	0.147852	0.128010	0.099881	-0.131057	-0.079292	0.070486	0.178436	0.163359	0.027437	0.146525	0.146525	1.159485	0.953025	0.000000	0.000000	0.000000	0.000000	0.000000	0.000000	0.000000	0.000000	0.000000	0.000000	0.000000	0.000000	0.000000	0.000000	0.000000	0.000000	0.000000	0.000000	0.000000	0.000000	0.000000	0.000000
0.025000	-0.025311	-0.325193	0.157215	0.148211	0.128313	0.100188	-0.131169	-0.079406	0.070956	0.178686	0.163707	0.027437	0.146525	0.146525	1.159558	0.957924	0.000000	0.000000	0.000000	0.000000	0.000000	0.000000	0.000000	0.000000	0.000000	0.000000	0.000000	0.000000	0.000000	0.000000	0.000000	0.000000	0.000000	0.000000	0.000000	0.000000	0.000000	0.000000
0.030000	-0.025374	-0.325341	0.157455	0.148574	0.128621	0.100490	-0.131285	-0.079529	0.071428	0.178945	0.164062	0.027437	0.146525	0.146525	1.159729	0.962756	0.000000	0.000000	0.000000	0.000000	0.000000	0.000000	0.000000	0.000000	0.000000	0.000000	0.000000	0.000000	0.000000	0.000000	0.000000	0.000000	0.000000	0.000000	0.000000	0.000000	0.000000	0.000000
0.035000	-0.025437	-0.325489	0.157698	0.148943	0.128936	0.100787	-0.131407	-0.079662	0.071902	0.179212	0.164424	0.027437	0.146525	0.146525	1.160003	0.967522	0.000000	0.000000	0.000000	0.000000	0.000000	0.000000	0.000000	0.000000	0.000000	0.000000	0.000000	0.000000	0.000000	0.000000	0.000000	0.000000	0.000000	0.000000	0.000000	0.000000	0.000000	0.000000
0.040000	-0.025500	-0.325638	0.157942	0.149316	0.129256	0.101079	-0.131534	-0.079803	0.072375	0.179487	0.164791	0.027437	0.146525	0.146525	1.160385	0.972224	0.000000	0.000000	0.000000	0.000000	0.000000	0.000000	0.000000	0.000000	0.000000	0.000000	0.000000	0.000000	0.000000	0.000000	0.000000	0.000000	0.000000	0.000000	0.000000	0.000000	0.000000	0.000000
0.045000	-0.025564	-0.325786	0.158188	0.149694	0.129582	0.101365	-0.131667	-0.079952	0.072848	0.179770	0.165165	0.027437	0.146525	0.146525	1.160879	0.976863	0.000000	0.000000	0.000000	0.000000	0.000000	0.000000	0.000000	0.000000	0.000000	0.000000	0.000000	0.000000	0.000000	0.000000	0.000000	0.000000	0.000000	0.000000	0.000000	0.000000	0.000000	0.000000
0.050000	-0.025628	-0.325935	0.158437	0.150077	0.129915	0.101645	-0.131805	-0.080109	0.073319	0.180062	0.165544	0.027437	0.146525	0.146525	1.161489	0.981440	0.000000	0.000000	0.000000	0.000000	0.000000	0.000000	0.000000	0.000000	0.000000	0.000000	0.000000	0.000000	0.000000	0.000000	0.000000	0.000000	0.000000	0.000000	0.000000	0.000000	0.000000	0.000000
0.055000	-0.025692	-0.326083	0.158686	0.150465	0.130253	0.101918	-0.131949	-0.080272	0.073789	0.180363	0.165930	0.027437	0.146525	0.146525	1.162218	0.985957	0.000000	0.000000	0.000000	0.000000	0.000000	0.000000	0.000000	0.000000	0.000000	0.000000	0.000000	0.000000	0.000000	0.000000	0.000000	0.000000	0.000000	0.000000	0.000000	0.000000	0.000000	0.000000
0.060000	-0.025756	-0.326232	0.158937	0.150857	0.130598	0.102184	-0.132097	-0.080443	0.074256	0.180672	0.166322	0.027437	0.146525	0.146525	1.163072	0.990415	0.000000	0.000000	0.000000	0.000000	0.000000	0.000000	0.000000	0.000000	0.000000	0.000000	0.000000	0.000000	0.000000	0.000000	0.000000	0.000000	0.000000	0.000000	0.000000	0.000000	0.000000	0.000000
0.065000	-0.025820	-0.326380	0.159189	0.151254	0.130949	0.102442	-0.132251	-0.080620	0.074720	0.180990	0.166720	0.027437	0.146525	0.146525	1.164052	0.994815	0.000000	0.000000	0.000000	0.000000	0.000000	0.000000	0.000000	0.000000	0.000000	0.000000	0.000000	0.000000	0.000000	0.000000	0.000000	0.000000	0.000000	0.000000	0.000000	0.000000	0.000000	0.000000
0.070000	-0.025884	-0.326528	0.159441	0.151656	0.131306	0.102692	-0.132410	-0.080802	0.075181	0.181317	0.167125	0.027437	0.146525	0.146525	1.165163	0.999158	0.000000	0.000000	0.000000	0.000000	0.000000	0.000000	0.000000	0.000000	0.000000	0.000000	0.000000	0.000000	0.000000	0.000000	0.000000	0.000000	0.000000	0.000000	0.000000	0.000000	0.000000	0.000000
0.075000	-0.025949	-0.326675	0.159694	0.152062	0.131670	0.102934	-0.132573	-0.080990	0.075638	0.181653	0.167535	0.027437	0.146525	0.146525	1.166407	1.003445	0.000000	0.000000	0.000000	0.000000	0.000000	0.000000	0.000000	0.000000	0.000000	0.000000	0.000000	0.000000	0.000000	0.000000	0.000000	0.000000	0.000000	0.000000	0.000000	0.000000	0.000000	0.000000
0.080000	-0.026013	-0.326822	0.159947	0.152474	0.132041	0.103168	-0.132741	-0.081183	0.076090	0.181999	0.167953	0.027437	0.146525	0.146525	1.167787	1.007678	0.000000	0.000000	0.000000	0.000000	0.000000	0.000000	0.000000	0.000000	0.000000	0.000000	0.000000	0.000000	0.000000	0.000000	0.000000	0.000000	0.000000	0.000000	0.000000	0.000000	0.000000	0.000000
0.085000	-0.026078	-0.326969	0.160199	0.152891	0.132418	0.103393	-0.132914	-0.081380	0.076538	0.182353	0.168376	0.027437	0.146525	0.146525	1.169306	1.011857	0.000000	0.000000	0.000000	0.000000	0.000000	0.000000	0.000000	0.000000	0.000000	0.000000	0.000000	0.000000	0.000000	0.000000	0.000000	0.000000	0.000000	0.000000	0.000000	0.000000	0.000000	0.000000
0.090000	-0.026143	-0.327116	0.160451	0.153313	0.132803	0.103609	-0.133090	-0.081581	0.076981	0.182717	0.168807	0.027437	0.146525	0.146525	1.170964	1.015984	0.000000	0.000000	0.000000	0.000000	0.000000	0.000000	0.000000	0.000000	0.000000	0.000000	0.000000	0.000000	0.000000	0.000000	0.000000	0.000000	0.000000	0.000000	0.000000	0.000000	0.000000	0.000000
0.095000	-0.026209	-0.327263	0.160703	0.153741	0.133196	0.103816	-0.133271	-0.081784	0.077419	0.183091	0.169245	0.027437	0.146525	0.146525	1.172765	1.020059	0.000000	0.000000	0.000000	0.000000	0.000000	0.000000	0.000000	0.000000	0.000000	0.000000	0.000000	0.000000	0.000000	0.000000	0.000000	0.000000	0.000000	0.000000	0.000000	0.000000	0.000000	0.000000
0.100000	-0.026274	-0.327410	0.160953	0.154174	0.133596	0.104013	-0.133455	-0.081989	0.077850	0.183475	0.169690	0.027437	0.146525	0.146525	1.174710	1.024083	0.000000	0.000000	0.000000	0.000000	0.000000	0.000000	0.000000	0.000000	0.000000	0.000000	0.000000	0.000000	0.000000	0.000000	0.000000	0.000000	0.000000	0.000000	0.000000	0.000000	0.000000	0.000000
0.105000	-0.026340	-0.327557	0.161202	0.154614	0.134004	0.104202	-0.133643	-0.082195	0.078276	0.183868	0.170143	0.027437	0.146525	0.146525	1.176799	1.028057	0.000000	0.000000	0.000000	0.000000	0.000000	0.000000	0.000000	0.000000	0.000000	0.000000	0.000000	0.000000	0.000000	0.000000	0.000000	0.000000	0.000000	0.000000	0.000000	0.000000	0.000000	0.000000
